#define 005b_67_width 18
#define 005b_67_height 18
static char 005b_67_bits[] = {
  0x00, 0x30, 0x00, 0x00, 0x30, 0x00, 0x00, 0x3C, 0x00, 0x00, 0x3C, 0x00, 
  0x00, 0x33, 0x00, 0x00, 0x33, 0x00, 0xF0, 0x30, 0x00, 0xF0, 0x30, 0x00, 
  0x30, 0x30, 0x00, 0x30, 0x30, 0x00, 0xF0, 0x30, 0x00, 0xF0, 0x30, 0x00, 
  0x00, 0x33, 0x00, 0x00, 0x33, 0x00, 0x00, 0x3C, 0x00, 0x00, 0x3C, 0x00, 
  0x00, 0x30, 0x00, 0x00, 0x30, 0x00, };
