#define 005b_71_width 18
#define 005b_71_height 18
static char 005b_71_bits[] = {
  0xFC, 0xFF, 0x03, 0xFC, 0xFF, 0x03, 0x0C, 0x00, 0x03, 0x0C, 0x00, 0x03, 
  0x0C, 0x00, 0x03, 0x0C, 0x00, 0x03, 0x0C, 0x00, 0x03, 0x0C, 0x00, 0x03, 
  0xFF, 0x03, 0x03, 0xFF, 0x03, 0x03, 0x03, 0x03, 0x03, 0x03, 0x03, 0x03, 
  0x03, 0x03, 0x03, 0x03, 0x03, 0x03, 0x03, 0xFF, 0x03, 0x03, 0xFF, 0x03, 
  0xFF, 0x03, 0x00, 0xFF, 0x03, 0x00, };
