#define 005b_13_width 18
#define 005b_13_height 18
static char 005b_13_bits[] = {
  0xC0, 0x0F, 0x00, 0xC0, 0x0F, 0x00, 0x30, 0x30, 0x00, 0x30, 0x30, 0x00, 
  0x30, 0x30, 0x00, 0x30, 0x30, 0x00, 0x30, 0x30, 0x00, 0x30, 0x30, 0x00, 
  0xC0, 0x0F, 0x00, 0xC0, 0x0F, 0x00, 0x30, 0x30, 0x00, 0x30, 0x30, 0x00, 
  0x0C, 0xC0, 0x00, 0x0C, 0xC0, 0x00, 0x03, 0x00, 0x03, 0x03, 0x00, 0x03, 
  0xFF, 0xFF, 0x03, 0xFF, 0xFF, 0x03, };
