#define 005b_25_width 18
#define 005b_25_height 18
static char 005b_25_bits[] = {
  0x3F, 0x00, 0x00, 0x3F, 0x00, 0x00, 0x33, 0x00, 0x00, 0x33, 0x00, 0x00, 
  0x33, 0xFF, 0x03, 0x33, 0xFF, 0x03, 0x33, 0x03, 0x03, 0x33, 0x03, 0x03, 
  0x33, 0x03, 0x03, 0x33, 0x03, 0x03, 0x33, 0x03, 0x03, 0x33, 0x03, 0x03, 
  0x33, 0xFF, 0x03, 0x33, 0xFF, 0x03, 0x33, 0x30, 0x00, 0x33, 0x30, 0x00, 
  0x3F, 0xFF, 0x03, 0x3F, 0xFF, 0x03, };
