#define 005b_04_width 18
#define 005b_04_height 18
static char 005b_04_bits[] = {
  0xC0, 0x03, 0x00, 0xC0, 0x03, 0x00, 0x30, 0x03, 0x00, 0x30, 0x03, 0x00, 
  0x0C, 0xFF, 0x03, 0x0C, 0xFF, 0x03, 0x03, 0x00, 0x03, 0x03, 0x00, 0x03, 
  0x00, 0xFF, 0x03, 0x00, 0xFF, 0x03, 0x00, 0x00, 0x03, 0x00, 0x00, 0x03, 
  0x00, 0xFF, 0x03, 0x00, 0xFF, 0x03, 0x03, 0x00, 0x03, 0x03, 0x00, 0x03, 
  0xFC, 0xFF, 0x03, 0xFC, 0xFF, 0x03, };
