#define 005b_44_width 18
#define 005b_44_height 18
static char 005b_44_bits[] = {
  0xCF, 0xFF, 0x00, 0xCF, 0xFF, 0x00, 0x0F, 0x00, 0x00, 0x0F, 0x00, 0x00, 
  0x00, 0x00, 0x00, 0x00, 0x00, 0x00, 0xCF, 0xFF, 0x00, 0xCF, 0xFF, 0x00, 
  0x0F, 0x00, 0x00, 0x0F, 0x00, 0x00, 0x00, 0x00, 0x00, 0x00, 0x00, 0x00, 
  0xCF, 0xFF, 0x00, 0xCF, 0xFF, 0x00, 0x0F, 0x00, 0x00, 0x0F, 0x00, 0x00, 
  0x00, 0x00, 0x00, 0x00, 0x00, 0x00, };
