#define 005b_24_width 18
#define 005b_24_height 18
static char 005b_24_bits[] = {
  0xFF, 0xFF, 0x03, 0xFF, 0xFF, 0x03, 0x03, 0x00, 0x03, 0x03, 0x00, 0x03, 
  0x03, 0x00, 0x03, 0x03, 0x00, 0x03, 0x03, 0x00, 0x03, 0x03, 0x00, 0x03, 
  0x03, 0x00, 0x03, 0x03, 0x00, 0x03, 0x03, 0x00, 0x03, 0x03, 0x00, 0x03, 
  0xFF, 0xFF, 0x03, 0xFF, 0xFF, 0x03, 0x00, 0x03, 0x00, 0x00, 0x03, 0x00, 
  0xF0, 0x3F, 0x00, 0xF0, 0x3F, 0x00, };
