#define 005b_27_width 18
#define 005b_27_height 18
static char 005b_27_bits[] = {
  0x00, 0xC0, 0x00, 0x00, 0xC0, 0x00, 0xFC, 0xFF, 0x00, 0xFC, 0xFF, 0x00, 
  0x0C, 0xC0, 0x00, 0x0C, 0xC0, 0x00, 0xCC, 0xCF, 0x00, 0xCC, 0xCF, 0x00, 
  0xCC, 0xCC, 0x00, 0xCC, 0xCC, 0x00, 0xCC, 0xCF, 0x00, 0xCC, 0xCF, 0x00, 
  0x0C, 0xC0, 0x00, 0x0C, 0xC0, 0x00, 0x0C, 0xC0, 0x00, 0x0C, 0xC0, 0x00, 
  0xFC, 0xFF, 0x00, 0xFC, 0xFF, 0x00, };
