#define 005b_69_width 18
#define 005b_69_height 18
static char 005b_69_bits[] = {
  0x00, 0x03, 0x00, 0x00, 0x03, 0x00, 0xC0, 0x03, 0x00, 0xC0, 0x03, 0x00, 
  0x30, 0x03, 0x00, 0x30, 0x03, 0x00, 0x0F, 0x03, 0x00, 0x0F, 0x03, 0x00, 
  0x03, 0xF3, 0x03, 0x03, 0xF3, 0x03, 0x0F, 0x03, 0x00, 0x0F, 0x03, 0x00, 
  0x30, 0x03, 0x00, 0x30, 0x03, 0x00, 0xC0, 0x03, 0x00, 0xC0, 0x03, 0x00, 
  0x00, 0x03, 0x00, 0x00, 0x03, 0x00, };
