#define 005b_62_width 18
#define 005b_62_height 18
static char 005b_62_bits[] = {
  0x0C, 0x03, 0x00, 0x0C, 0x03, 0x00, 0x30, 0x0C, 0x00, 0x30, 0x0C, 0x00, 
  0xC0, 0x30, 0x00, 0xC0, 0x30, 0x00, 0x00, 0xC3, 0x00, 0x00, 0xC3, 0x00, 
  0x00, 0x0C, 0x03, 0x00, 0x0C, 0x03, 0x00, 0xC3, 0x00, 0x00, 0xC3, 0x00, 
  0xC0, 0x30, 0x00, 0xC0, 0x30, 0x00, 0x30, 0x0C, 0x00, 0x30, 0x0C, 0x00, 
  0x0C, 0x03, 0x00, 0x0C, 0x03, 0x00, };
