#define 005b_61_width 18
#define 005b_61_height 18
static char 005b_61_bits[] = {
  0x00, 0x0C, 0x03, 0x00, 0x0C, 0x03, 0x00, 0x03, 0x03, 0x00, 0x03, 0x03, 
  0xC0, 0x00, 0x03, 0xC0, 0x00, 0x03, 0x30, 0x00, 0x03, 0x30, 0x00, 0x03, 
  0x0C, 0x00, 0x03, 0x0C, 0x00, 0x03, 0x30, 0x00, 0x03, 0x30, 0x00, 0x03, 
  0xC0, 0x00, 0x03, 0xC0, 0x00, 0x03, 0x00, 0x03, 0x03, 0x00, 0x03, 0x03, 
  0x00, 0x0C, 0x03, 0x00, 0x0C, 0x03, };
