#define 005b_23_width 18
#define 005b_23_height 18
static char 005b_23_bits[] = {
  0x00, 0x03, 0x00, 0x00, 0x03, 0x00, 0x00, 0x03, 0x00, 0x00, 0x03, 0x00, 
  0x00, 0x03, 0x00, 0x00, 0x03, 0x00, 0x0C, 0xC3, 0x00, 0x0C, 0xC3, 0x00, 
  0x30, 0x33, 0x00, 0x30, 0x33, 0x00, 0xC0, 0x0F, 0x00, 0xC0, 0x0F, 0x00, 
  0x00, 0x03, 0x00, 0x00, 0x03, 0x00, 0x00, 0x00, 0x00, 0x00, 0x00, 0x00, 
  0xFC, 0xFF, 0x00, 0xFC, 0xFF, 0x00, };
