#define 005b_09_width 18
#define 005b_09_height 18
static char 005b_09_bits[] = {
  0x03, 0x00, 0x00, 0x03, 0x00, 0x00, 0x0C, 0x00, 0x00, 0x0C, 0x00, 0x00, 
  0xF0, 0xFF, 0x03, 0xF0, 0xFF, 0x03, 0x30, 0x33, 0x03, 0x30, 0x33, 0x03, 
  0x30, 0x33, 0x03, 0x30, 0x33, 0x03, 0xF0, 0xFF, 0x00, 0xF0, 0xFF, 0x00, 
  0x00, 0x00, 0x00, 0x00, 0x00, 0x00, 0x3C, 0xC0, 0x03, 0x3C, 0xC0, 0x03, 
  0x3C, 0xC0, 0x03, 0x3C, 0xC0, 0x03, };
