#define 005b_26_width 18
#define 005b_26_height 18
static char 005b_26_bits[] = {
  0xFF, 0xFF, 0x03, 0xFF, 0xFF, 0x03, 0x03, 0x00, 0x03, 0x03, 0x00, 0x03, 
  0xF3, 0x3F, 0x03, 0xF3, 0x3F, 0x03, 0x03, 0x00, 0x03, 0x03, 0x00, 0x03, 
  0x33, 0x33, 0x03, 0x33, 0x33, 0x03, 0x03, 0x00, 0x03, 0x03, 0x00, 0x03, 
  0x33, 0x33, 0x03, 0x33, 0x33, 0x03, 0x03, 0x00, 0x03, 0x03, 0x00, 0x03, 
  0xFF, 0xFF, 0x03, 0xFF, 0xFF, 0x03, };
