#define 005b_31_width 18
#define 005b_31_height 18
static char 005b_31_bits[] = {
  0xFC, 0xFF, 0x00, 0xFC, 0xFF, 0x00, 0x03, 0x00, 0x03, 0x03, 0x00, 0x03, 
  0x03, 0x00, 0x03, 0x03, 0x00, 0x03, 0x03, 0x00, 0x03, 0x03, 0x00, 0x03, 
  0x03, 0x00, 0x03, 0x03, 0x00, 0x03, 0xFC, 0xC3, 0x00, 0xFC, 0xC3, 0x00, 
  0x00, 0xCC, 0x00, 0x00, 0xCC, 0x00, 0x00, 0xF0, 0x00, 0x00, 0xF0, 0x00, 
  0x00, 0xC0, 0x00, 0x00, 0xC0, 0x00, };
