#define 005b_02_width 18
#define 005b_02_height 18
static char 005b_02_bits[] = {
  0x00, 0x00, 0x00, 0x00, 0x00, 0x00, 0xFF, 0xFF, 0x03, 0xFF, 0xFF, 0x03, 
  0x03, 0x00, 0x03, 0x03, 0x00, 0x03, 0x33, 0x30, 0x03, 0x33, 0x30, 0x03, 
  0xC3, 0x0C, 0x03, 0xC3, 0x0C, 0x03, 0x03, 0x03, 0x03, 0x03, 0x03, 0x03, 
  0x03, 0x00, 0x03, 0x03, 0x00, 0x03, 0xFF, 0xFF, 0x03, 0xFF, 0xFF, 0x03, 
  0x00, 0x00, 0x00, 0x00, 0x00, 0x00, };
