#define 005b_28_width 18
#define 005b_28_height 18
static char 005b_28_bits[] = {
  0xFC, 0xFF, 0x00, 0xFC, 0xFF, 0x00, 0x0C, 0xC0, 0x00, 0x0C, 0xC0, 0x00, 
  0x0C, 0xC0, 0x00, 0x0C, 0xC0, 0x00, 0x0C, 0xC0, 0x00, 0x0C, 0xC0, 0x00, 
  0x0C, 0xC0, 0x00, 0x0C, 0xC0, 0x00, 0x0C, 0xC0, 0x00, 0x0C, 0xC0, 0x00, 
  0x0C, 0xC3, 0x00, 0x0C, 0xC3, 0x00, 0x0C, 0xC0, 0x00, 0x0C, 0xC0, 0x00, 
  0xFC, 0xFF, 0x00, 0xFC, 0xFF, 0x00, };
