#define 005b_20_width 18
#define 005b_20_height 18
static char 005b_20_bits[] = {
  0xC0, 0x0F, 0x00, 0xC0, 0x0F, 0x00, 0x30, 0x30, 0x00, 0x30, 0x30, 0x00, 
  0x0C, 0xC0, 0x00, 0x0C, 0xC0, 0x00, 0x03, 0x00, 0x03, 0x03, 0x00, 0x03, 
  0xF3, 0x3F, 0x03, 0xF3, 0x3F, 0x03, 0x03, 0x00, 0x03, 0x03, 0x00, 0x03, 
  0x0C, 0xC0, 0x00, 0x0C, 0xC0, 0x00, 0x30, 0x30, 0x00, 0x30, 0x30, 0x00, 
  0xC0, 0x0F, 0x00, 0xC0, 0x0F, 0x00, };
