#define 005b_34_width 18
#define 005b_34_height 18
static char 005b_34_bits[] = {
  0x00, 0x03, 0x00, 0x00, 0x03, 0x00, 0xC0, 0x0C, 0x00, 0xC0, 0x0C, 0x00, 
  0x00, 0x03, 0x00, 0x00, 0x03, 0x00, 0xF0, 0x3F, 0x00, 0xF0, 0x3F, 0x00, 
  0x0C, 0xC3, 0x00, 0x0C, 0xC3, 0x00, 0xCC, 0xCC, 0x00, 0xCC, 0xCC, 0x00, 
  0xC0, 0x0C, 0x00, 0xC0, 0x0C, 0x00, 0xC0, 0x0C, 0x00, 0xC0, 0x0C, 0x00, 
  0xC0, 0x0C, 0x00, 0xC0, 0x0C, 0x00, };
