#define 005b_03_width 18
#define 005b_03_height 18
static char 005b_03_bits[] = {
  0xF0, 0x03, 0x00, 0xF0, 0x03, 0x00, 0x0C, 0x0C, 0x00, 0x0C, 0x0C, 0x00, 
  0x03, 0x30, 0x00, 0x03, 0x30, 0x00, 0x03, 0x30, 0x00, 0x03, 0x30, 0x00, 
  0x03, 0x30, 0x00, 0x03, 0x30, 0x00, 0x0C, 0x0C, 0x00, 0x0C, 0x0C, 0x00, 
  0xF0, 0x33, 0x00, 0xF0, 0x33, 0x00, 0x00, 0xC0, 0x00, 0x00, 0xC0, 0x00, 
  0x00, 0x00, 0x03, 0x00, 0x00, 0x03, };
