#define 005b_48_width 18
#define 005b_48_height 18
static char 005b_48_bits[] = {
  0xFC, 0x0F, 0x00, 0xFC, 0x0F, 0x00, 0x0C, 0x0C, 0x00, 0x0C, 0x0C, 0x00, 
  0xCC, 0x0C, 0x00, 0xCC, 0x0C, 0x00, 0xCC, 0xCC, 0x00, 0xCC, 0xCC, 0x00, 
  0xCC, 0xCC, 0x00, 0xCC, 0xCC, 0x00, 0xCC, 0xCC, 0x00, 0xCC, 0xCC, 0x00, 
  0xCC, 0xCF, 0x00, 0xCC, 0xCF, 0x00, 0x0C, 0xC0, 0x00, 0x0C, 0xC0, 0x00, 
  0xFC, 0xFF, 0x00, 0xFC, 0xFF, 0x00, };
