#define 005b_66_width 18
#define 005b_66_height 18
static char 005b_66_bits[] = {
  0x00, 0x03, 0x00, 0x00, 0x03, 0x00, 0xC0, 0xC3, 0x00, 0xC0, 0xC3, 0x00, 
  0x30, 0x03, 0x03, 0x30, 0x03, 0x03, 0x0F, 0x33, 0x03, 0x0F, 0x33, 0x03, 
  0x03, 0x33, 0x03, 0x03, 0x33, 0x03, 0x0F, 0x33, 0x03, 0x0F, 0x33, 0x03, 
  0x30, 0x03, 0x03, 0x30, 0x03, 0x03, 0xC0, 0xC3, 0x00, 0xC0, 0xC3, 0x00, 
  0x00, 0x03, 0x00, 0x00, 0x03, 0x00, };
