#define 005b_32_width 18
#define 005b_32_height 18
static char 005b_32_bits[] = {
  0xFF, 0xFF, 0x03, 0xFF, 0xFF, 0x03, 0x03, 0x00, 0x03, 0x03, 0x00, 0x03, 
  0x03, 0x03, 0x03, 0x03, 0x03, 0x03, 0x00, 0x0C, 0x03, 0x00, 0x0C, 0x03, 
  0xFF, 0x3F, 0x03, 0xFF, 0x3F, 0x03, 0x00, 0x0C, 0x03, 0x00, 0x0C, 0x03, 
  0x03, 0x03, 0x03, 0x03, 0x03, 0x03, 0x03, 0x00, 0x03, 0x03, 0x00, 0x03, 
  0xFF, 0xFF, 0x03, 0xFF, 0xFF, 0x03, };
