#define 005b_29_width 18
#define 005b_29_height 18
static char 005b_29_bits[] = {
  0xC0, 0x3F, 0x00, 0xC0, 0x3F, 0x00, 0x30, 0x30, 0x00, 0x30, 0x30, 0x00, 
  0x30, 0x3F, 0x00, 0x30, 0x3F, 0x00, 0x30, 0x03, 0x00, 0x30, 0x03, 0x00, 
  0x30, 0x03, 0x00, 0x30, 0x03, 0x00, 0x30, 0x03, 0x00, 0x30, 0x03, 0x00, 
  0x30, 0x3F, 0x00, 0x30, 0x3F, 0x00, 0x30, 0x30, 0x00, 0x30, 0x30, 0x00, 
  0xC0, 0x3F, 0x00, 0xC0, 0x3F, 0x00, };
