#define 005b_11_width 18
#define 005b_11_height 18
static char 005b_11_bits[] = {
  0xFC, 0xFF, 0x00, 0xFC, 0xFF, 0x00, 0x0C, 0xC0, 0x00, 0x0C, 0xC0, 0x00, 
  0x0C, 0xC0, 0x00, 0x0C, 0xC0, 0x00, 0x0C, 0xC0, 0x00, 0x0C, 0xC0, 0x00, 
  0xFC, 0xFF, 0x00, 0xFC, 0xFF, 0x00, 0x00, 0x03, 0x00, 0x00, 0x03, 0x00, 
  0xF0, 0x03, 0x00, 0xF0, 0x03, 0x00, 0x00, 0x03, 0x00, 0x00, 0x03, 0x00, 
  0xF0, 0x03, 0x00, 0xF0, 0x03, 0x00, };
