#define 005b_35_width 18
#define 005b_35_height 18
static char 005b_35_bits[] = {
  0x00, 0x3F, 0x00, 0x00, 0x3F, 0x00, 0xC0, 0x30, 0x00, 0xC0, 0x30, 0x00, 
  0xC0, 0xCC, 0x03, 0xC0, 0xCC, 0x03, 0xC0, 0x30, 0x03, 0xC0, 0x30, 0x03, 
  0x30, 0x03, 0x03, 0x30, 0x03, 0x03, 0x0C, 0xFC, 0x00, 0x0C, 0xFC, 0x00, 
  0x03, 0x03, 0x00, 0x03, 0x03, 0x00, 0xC3, 0x00, 0x00, 0xC3, 0x00, 0x00, 
  0x3F, 0x00, 0x00, 0x3F, 0x00, 0x00, };
