#define 005b_30_width 18
#define 005b_30_height 18
static char 005b_30_bits[] = {
  0xFC, 0xFF, 0x00, 0xFC, 0xFF, 0x00, 0x03, 0x00, 0x03, 0x03, 0x00, 0x03, 
  0xF3, 0x3F, 0x03, 0xF3, 0x3F, 0x03, 0x33, 0x30, 0x03, 0x33, 0x30, 0x03, 
  0x3F, 0xF0, 0x03, 0x3F, 0xF0, 0x03, 0x00, 0x03, 0x00, 0x00, 0x03, 0x00, 
  0x03, 0x00, 0x03, 0x03, 0x00, 0x03, 0xFF, 0xFF, 0x03, 0xFF, 0xFF, 0x03, 
  0x00, 0x00, 0x00, 0x00, 0x00, 0x00, };
