#define 005b_47_width 18
#define 005b_47_height 18
static char 005b_47_bits[] = {
  0xFC, 0x0F, 0x00, 0xFC, 0x0F, 0x00, 0x0C, 0x3C, 0x00, 0x0C, 0x3C, 0x00, 
  0x0C, 0xFC, 0x00, 0x0C, 0xFC, 0x00, 0x0C, 0xC0, 0x00, 0x0C, 0xC0, 0x00, 
  0x0C, 0xC0, 0x00, 0x0C, 0xC0, 0x00, 0x0C, 0xC0, 0x00, 0x0C, 0xC0, 0x00, 
  0x0C, 0xC0, 0x00, 0x0C, 0xC0, 0x00, 0x0C, 0xC0, 0x00, 0x0C, 0xC0, 0x00, 
  0xFC, 0xFF, 0x00, 0xFC, 0xFF, 0x00, };
