#define 005b_59_width 18
#define 005b_59_height 18
static char 005b_59_bits[] = {
  0x30, 0x0C, 0x00, 0x30, 0x0C, 0x00, 0x30, 0x0C, 0x00, 0x30, 0x0C, 0x00, 
  0x30, 0x0C, 0x00, 0x30, 0x0C, 0x00, 0x30, 0x0C, 0x00, 0x30, 0x0C, 0x00, 
  0x30, 0x0C, 0x00, 0x30, 0x0C, 0x00, 0x30, 0x0C, 0x00, 0x30, 0x0C, 0x00, 
  0x30, 0x0C, 0x00, 0x30, 0x0C, 0x00, 0x30, 0x0C, 0x00, 0x30, 0x0C, 0x00, 
  0x30, 0x0C, 0x00, 0x30, 0x0C, 0x00, };
