#define 005b_18_width 18
#define 005b_18_height 18
static char 005b_18_bits[] = {
  0xCC, 0xCC, 0x00, 0xCC, 0xCC, 0x00, 0x33, 0x33, 0x03, 0x33, 0x33, 0x03, 
  0x03, 0x00, 0x03, 0x03, 0x00, 0x03, 0x03, 0x00, 0x03, 0x03, 0x00, 0x03, 
  0x33, 0x33, 0x03, 0x33, 0x33, 0x03, 0x03, 0x00, 0x03, 0x03, 0x00, 0x03, 
  0x33, 0x33, 0x03, 0x33, 0x33, 0x03, 0x03, 0x00, 0x03, 0x03, 0x00, 0x03, 
  0xFF, 0xFF, 0x03, 0xFF, 0xFF, 0x03, };
