#define 005b_08_width 18
#define 005b_08_height 18
static char 005b_08_bits[] = {
  0x00, 0xC3, 0x00, 0x00, 0xC3, 0x00, 0xC0, 0xCC, 0x00, 0xC0, 0xCC, 0x00, 
  0x30, 0x30, 0x00, 0x30, 0x30, 0x00, 0x0C, 0xC0, 0x00, 0x0C, 0xC0, 0x00, 
  0x03, 0x00, 0x03, 0x03, 0x00, 0x03, 0xCC, 0xCF, 0x00, 0xCC, 0xCF, 0x00, 
  0xCC, 0xCC, 0x00, 0xCC, 0xCC, 0x00, 0xCC, 0xCC, 0x00, 0xCC, 0xCC, 0x00, 
  0xFC, 0xFF, 0x00, 0xFC, 0xFF, 0x00, };
