#define 005b_05_width 18
#define 005b_05_height 18
static char 005b_05_bits[] = {
  0xFF, 0xFF, 0x00, 0xFF, 0xFF, 0x00, 0x03, 0x00, 0x03, 0x03, 0x00, 0x03, 
  0xFF, 0x03, 0x00, 0xFF, 0x03, 0x00, 0x03, 0x00, 0x00, 0x03, 0x00, 0x00, 
  0xFF, 0x03, 0x00, 0xFF, 0x03, 0x00, 0x03, 0x00, 0x03, 0x03, 0x00, 0x03, 
  0xFF, 0xC3, 0x00, 0xFF, 0xC3, 0x00, 0x00, 0x33, 0x00, 0x00, 0x33, 0x00, 
  0x00, 0x0F, 0x00, 0x00, 0x0F, 0x00, };
