#define 005b_43_width 18
#define 005b_43_height 18
static char 005b_43_bits[] = {
  0xFF, 0x03, 0x00, 0xFF, 0x03, 0x00, 0x03, 0x03, 0x00, 0x03, 0x03, 0x00, 
  0x03, 0xFF, 0x03, 0x03, 0xFF, 0x03, 0x03, 0x00, 0x03, 0x03, 0x00, 0x03, 
  0x03, 0x00, 0x03, 0x03, 0x00, 0x03, 0x03, 0x00, 0x03, 0x03, 0x00, 0x03, 
  0x03, 0x00, 0x03, 0x03, 0x00, 0x03, 0x03, 0x00, 0x03, 0x03, 0x00, 0x03, 
  0xFF, 0xFF, 0x03, 0xFF, 0xFF, 0x03, };
