#define 005b_33_width 18
#define 005b_33_height 18
static char 005b_33_bits[] = {
  0xFF, 0x00, 0x00, 0xFF, 0x00, 0x00, 0xC0, 0x00, 0x00, 0xC0, 0x00, 0x00, 
  0xC0, 0x30, 0x00, 0xC0, 0x30, 0x00, 0x00, 0xC0, 0x00, 0x00, 0xC0, 0x00, 
  0xFF, 0xFF, 0x03, 0xFF, 0xFF, 0x03, 0x00, 0xC0, 0x00, 0x00, 0xC0, 0x00, 
  0xC0, 0x30, 0x00, 0xC0, 0x30, 0x00, 0xC0, 0x00, 0x00, 0xC0, 0x00, 0x00, 
  0xFF, 0x00, 0x00, 0xFF, 0x00, 0x00, };
